<?xml version="1.0" standalone="no"?>
<!DOCTYPE svg PUBLIC "-//W3C//DTD SVG 20010904//EN"
 "http://www.w3.org/TR/2001/REC-SVG-20010904/DTD/svg10.dtd">
<svg version="1.0" xmlns="http://www.w3.org/2000/svg"
 width="192.000000pt" height="192.000000pt" viewBox="0 0 192.000000 192.000000"
 preserveAspectRatio="xMidYMid meet">
<metadata>
Created by potrace 1.14, written by Peter Selinger 2001-2017
</metadata>
<g transform="translate(0.000000,192.000000) scale(0.100000,-0.100000)"
fill="#000000" stroke="none">
<path d="M923 1805 c-77 -33 -91 -118 -31 -182 l21 -23 -29 -1 c-16 0 -38 -2
-49 -4 -11 -2 -42 -7 -68 -10 -62 -8 -178 -48 -232 -79 -32 -19 -50 -23 -83
-19 -86 12 -132 -34 -129 -128 1 -32 -5 -68 -14 -89 -9 -19 -29 -69 -44 -110
-50 -138 -63 -174 -109 -296 l-46 -120 -40 0 c-89 0 -93 -100 -6 -185 36 -35
128 -81 201 -99 108 -27 297 -17 390 21 17 7 36 13 42 15 7 1 36 19 64 40 79
57 117 158 74 194 -7 6 -33 13 -56 16 -24 3 -44 6 -44 7 -2 8 -52 147 -76 212
-16 44 -40 109 -53 145 -13 36 -36 97 -50 135 -30 81 -38 113 -27 119 11 7
120 16 253 21 104 3 118 2 122 -13 3 -9 4 -238 4 -509 l-1 -491 -46 -8 c-105
-17 -164 -43 -222 -99 -55 -52 -67 -128 -23 -150 32 -16 678 -12 698 4 19 16
21 73 4 103 -39 65 -131 119 -241 140 l-65 12 2 506 1 505 80 -1 c107 0 286
-12 292 -18 16 -16 -14 -111 -147 -456 -16 -41 -35 -94 -42 -117 -7 -25 -19
-43 -28 -44 -85 -6 -104 -20 -102 -73 4 -94 123 -186 286 -220 77 -16 245 -15
289 3 15 6 27 9 27 6 0 -7 95 30 125 50 88 55 133 125 120 185 -7 31 -30 44
-80 45 -25 0 -31 6 -43 40 -8 22 -26 69 -40 105 -13 35 -25 69 -27 75 -1 5 -7
21 -12 35 -6 14 -27 72 -47 130 -37 106 -51 140 -67 173 -5 9 -6 34 -3 56 7
47 -16 102 -51 121 -15 8 -42 11 -72 7 -40 -4 -56 0 -101 25 -29 16 -61 31
-70 33 -9 2 -36 10 -58 18 -23 9 -68 19 -100 23 -33 4 -62 9 -66 10 -5 1 -22
2 -39 3 l-31 1 26 31 c14 17 26 34 27 37 8 52 2 79 -23 108 -32 36 -74 46
-115 29z m-388 -810 c47 -126 83 -234 81 -240 -3 -10 -371 -13 -381 -3 -3 2 7
33 21 69 14 35 27 71 29 79 2 8 4 15 5 15 1 0 3 7 5 15 2 8 23 65 45 125 23
61 51 137 62 170 l21 59 13 -29 c8 -17 52 -133 99 -260z m999 183 c20 -54 52
-142 72 -195 19 -54 46 -127 59 -162 14 -36 23 -67 20 -69 -8 -8 -376 -8 -381
0 -3 4 23 82 56 175 64 177 67 185 94 246 9 21 16 42 16 47 0 14 20 63 24 59
2 -2 20 -48 40 -101z"/>
</g>
</svg>
